<svg width="200" height="400" xmlns="http://www.w3.org/2000/svg" style="vector-effect: non-scaling-stroke;" stroke="null">
 <!-- Created with Method Draw - http://github.com/duopixel/Method-Draw/ -->

 <g stroke="null">
  <title stroke="null">background</title>
  <rect stroke="null" fill="#fff" id="canvas_background" height="402" width="202" y="-1" x="-1"/>
  <g style="vector-effect: non-scaling-stroke;" stroke="null" display="none" overflow="visible" y="0" x="0" height="100%" width="100%" id="canvasGrid">
   <rect fill="url(#gridpattern)" stroke-width="0" y="0" x="0" height="100%" width="100%"/>
  </g>
 </g>
 <g stroke="null">
  <title stroke="null">Layer 1</title>
  <!-- Created with Method Draw - http://github.com/duopixel/Method-Draw/ -->
  <g stroke="null" transform="translate(-0.0000878829596331343,0.00008098567195702344) scale(1,1.018404483795166) translate(0.0000878829596331343,-0.00008098567195702344) " id="svg_77">
   <g stroke="null" transform="matrix(1.0585204320659092,0,0,1.028219577825835,-790.963055702753,-1379.0792558864794) " id="svg_74">
    <title stroke="null" transform="translate(0,-89.11861419677734) translate(0,0.00006475434929598123) translate(0,-0.00005666005381499417) translate(0,0.00006475434929598123) translate(-47.15402603149414,0) translate(-0.000010901714631472714,0) translate(-0.000010901714631472714,0) translate(-0.000010901714631472714,0) translate(0,-0.00005666005381499417) translate(0,0.00006475434929598123) translate(0,-1.0292298793792725) translate(0.00004905771857011132,0) translate(-0.000010901714631472714,0) translate(-0.5225355625152588,0) translate(77.16111755371094,-2.121870517730713) translate(718.7499389648438,0) translate(0,1434.5) ">background</title>
    <rect stroke="null" x="747.2345" y="1341.230366" width="189" height="382" id="svg_72" fill="none"/>
    <g stroke="null" id="svg_71" display="none">
     <rect stroke="null" id="svg_75" width="300" height="400" x="749.2345" y="1343.230366" stroke-width="0" fill="url(#gridpattern)"/>
    </g>
   </g>
   <g stroke="null" transform="matrix(1.0585204320659092,0,0,1.028219577825835,-790.963055702753,-1379.0792558864794) " id="svg_76">
    <title stroke="null" transform="translate(0,-89.11861419677734) translate(0,0.00006475434929598123) translate(0,-0.00005666005381499417) translate(0,0.00006475434929598123) translate(-47.15402603149414,0) translate(-0.000010901714631472714,0) translate(-0.000010901714631472714,0) translate(-0.000010901714631472714,0) translate(0,-0.00005666005381499417) translate(0,0.00006475434929598123) translate(0,-1.0292298793792725) translate(0.00004905771857011132,0) translate(-0.000010901714631472714,0) translate(-0.5225355625152588,0) translate(77.16111755371094,-2.121870517730713) translate(718.7499389648438,0) translate(0,1434.5) ">Layer 1</title>
    <g stroke="null" id="svg_38">
     <g stroke="null" id="svg_54" transform="matrix(8.036937278366224,0,0,8.036937278366224,0,0) ">
      <path stroke="null" d="m110.625876,167.132122l-11.759,0c-3.117,0 -5.643,3.467 -5.643,6.584l0,34.804c0,3.116 2.526,5.64399 5.643,5.64399l11.759,0c3.116,0 5.64401,-2.527 5.64401,-5.64399l0,-34.80401c-0.002,-3.117 -2.528,-6.584 -5.644,-6.584l-0.00001,0.00001zm4.65501,14.188l0,11.665l-2.729,0.351l0,-4.806l2.729,-7.21zm-1.432,-3.415c-1.016,3.9 -2.219,8.51 -2.219,8.51l-13.768,0l-2.222,-8.51c0.001,0 8.884,-3.018 18.20899,0l0.00001,0zm-16.877,10.94l0,4.492l-2.73,-0.349l0,-11.354l2.73,7.211zm-2.73,16.225l0,-10.359l2.73,0.343l0,8.196l-2.73,1.82zm1.557,2.944l2.218,-3.336l13.771,0l2.219,3.336l-18.208,0zm16.753,-5.077l0,-7.872l2.729,-0.355l0,10.048l-2.729,-1.821z" id="svg_70"/>
      <g stroke="null" id="svg_69"/>
      <g stroke="null" id="svg_68"/>
      <g stroke="null" id="svg_67"/>
      <g stroke="null" id="svg_66"/>
      <g stroke="null" id="svg_65"/>
      <g stroke="null" id="svg_64"/>
      <g stroke="null" id="svg_63"/>
      <g stroke="null" id="svg_62"/>
      <g stroke="null" id="svg_61"/>
      <g stroke="null" id="svg_60"/>
      <g stroke="null" id="svg_59"/>
      <g stroke="null" id="svg_58"/>
      <g stroke="null" id="svg_57"/>
      <g stroke="null" id="svg_56"/>
      <g stroke="null" id="svg_55"/>
     </g>
     <g stroke="null" id="svg_53" transform="matrix(8.036937278366224,0,0,8.036937278366224,0,0) "/>
     <g stroke="null" id="svg_52" transform="matrix(8.036937278366224,0,0,8.036937278366224,0,0) "/>
     <g stroke="null" id="svg_51" transform="matrix(8.036937278366224,0,0,8.036937278366224,0,0) "/>
     <g stroke="null" id="svg_50" transform="matrix(8.036937278366224,0,0,8.036937278366224,0,0) "/>
     <g stroke="null" id="svg_49" transform="matrix(8.036937278366224,0,0,8.036937278366224,0,0) "/>
     <g stroke="null" id="svg_48" transform="matrix(8.036937278366224,0,0,8.036937278366224,0,0) "/>
     <g stroke="null" id="svg_47" transform="matrix(8.036937278366224,0,0,8.036937278366224,0,0) "/>
     <g stroke="null" id="svg_46" transform="matrix(8.036937278366224,0,0,8.036937278366224,0,0) "/>
     <g stroke="null" id="svg_45" transform="matrix(8.036937278366224,0,0,8.036937278366224,0,0) "/>
     <g stroke="null" id="svg_44" transform="matrix(8.036937278366224,0,0,8.036937278366224,0,0) "/>
     <g stroke="null" id="svg_43" transform="matrix(8.036937278366224,0,0,8.036937278366224,0,0) "/>
     <g stroke="null" id="svg_42" transform="matrix(8.036937278366224,0,0,8.036937278366224,0,0) "/>
     <g stroke="null" id="svg_41" transform="matrix(8.036937278366224,0,0,8.036937278366224,0,0) "/>
     <g stroke="null" id="svg_40" transform="matrix(8.036937278366224,0,0,8.036937278366224,0,0) "/>
     <g stroke="null" id="svg_39" transform="matrix(8.036937278366224,0,0,8.036937278366224,0,0) "/>
    </g>
   </g>
  </g>
 </g>
</svg>