<svg width="580" height="400" xmlns="http://www.w3.org/2000/svg">
 <!-- Created with Method Draw - http://github.com/duopixel/Method-Draw/ -->

 <g>
  <title>background</title>
  <rect fill="#fff" id="canvas_background" height="402" width="582" y="-1" x="-1"/>
  <g display="none" overflow="visible" y="0" x="0" height="100%" width="100%" id="canvasGrid">
   <rect fill="url(#gridpattern)" stroke-width="0" y="0" x="0" height="100%" width="100%"/>
  </g>
 </g>
 <g>
  <title>Layer 1</title>
  <g id="svg_37">
   <g transform="matrix(8.036937278366224,0,0,8.036937278366224,0,0) " id="svg_5">
    <path id="svg_6" d="m41.962396,1.3691l-11.759,0c-3.117,0 -5.643,3.467 -5.643,6.584l0,34.804c0,3.116 2.526,5.644 5.643,5.644l11.759,0c3.116,0 5.644,-2.527 5.644,-5.644l0,-34.804c-0.002,-3.117 -2.528,-6.584 -5.644,-6.584zm4.655,14.188l0,11.665l-2.729,0.351l0,-4.806l2.729,-7.21zm-1.432,-3.415c-1.016,3.9 -2.219,8.51 -2.219,8.51l-13.768,0l-2.222,-8.51c0.001,0 8.884,-3.018 18.209,0zm-16.877,10.94l0,4.492l-2.73,-0.349l0,-11.354l2.73,7.211zm-2.73,16.225l0,-10.359l2.73,0.343l0,8.196l-2.73,1.82zm1.557,2.944l2.218,-3.336l13.771,0l2.219,3.336l-18.208,0zm16.753,-5.077l0,-7.872l2.729,-0.355l0,10.048l-2.729,-1.821z"/>
    <g id="svg_7"/>
    <g id="svg_8"/>
    <g id="svg_9"/>
    <g id="svg_10"/>
    <g id="svg_11"/>
    <g id="svg_12"/>
    <g id="svg_13"/>
    <g id="svg_14"/>
    <g id="svg_15"/>
    <g id="svg_16"/>
    <g id="svg_17"/>
    <g id="svg_18"/>
    <g id="svg_19"/>
    <g id="svg_20"/>
    <g id="svg_21"/>
   </g>
   <g transform="matrix(8.036937278366224,0,0,8.036937278366224,0,0) " id="svg_22"/>
   <g transform="matrix(8.036937278366224,0,0,8.036937278366224,0,0) " id="svg_23"/>
   <g transform="matrix(8.036937278366224,0,0,8.036937278366224,0,0) " id="svg_24"/>
   <g transform="matrix(8.036937278366224,0,0,8.036937278366224,0,0) " id="svg_25"/>
   <g transform="matrix(8.036937278366224,0,0,8.036937278366224,0,0) " id="svg_26"/>
   <g transform="matrix(8.036937278366224,0,0,8.036937278366224,0,0) " id="svg_27"/>
   <g transform="matrix(8.036937278366224,0,0,8.036937278366224,0,0) " id="svg_28"/>
   <g transform="matrix(8.036937278366224,0,0,8.036937278366224,0,0) " id="svg_29"/>
   <g transform="matrix(8.036937278366224,0,0,8.036937278366224,0,0) " id="svg_30"/>
   <g transform="matrix(8.036937278366224,0,0,8.036937278366224,0,0) " id="svg_31"/>
   <g transform="matrix(8.036937278366224,0,0,8.036937278366224,0,0) " id="svg_32"/>
   <g transform="matrix(8.036937278366224,0,0,8.036937278366224,0,0) " id="svg_33"/>
   <g transform="matrix(8.036937278366224,0,0,8.036937278366224,0,0) " id="svg_34"/>
   <g transform="matrix(8.036937278366224,0,0,8.036937278366224,0,0) " id="svg_35"/>
   <g transform="matrix(8.036937278366224,0,0,8.036937278366224,0,0) " id="svg_36"/>
  </g>
 </g>
</svg>